<?xml version="1.0" encoding="UTF-8"?>
<svg enable-background="new 0 0 16 16" version="1.1" viewBox="0 0 16 16" xml:space="preserve" xmlns="http://www.w3.org/2000/svg">
<g fill="#1D2D3E">
	<path d="M16,4.7c-0.3-1.4-1.3-0.5-1.3-0.5L12,10.8H6.6L3.3,2.3L0.5,2.1c-1,0.5-0.1,1.5-0.1,1.5l1.9,0.1l3.5,8.5h7.3   l0.5-1.4L16,4.7z"/>
	<path d="m6.7 12.6c-0.6 0-1.2 0.5-1.2 1.2 0 0.6 0.5 1.2 1.2 1.2s1.2-0.5 1.2-1.2c0-0.6-0.5-1.2-1.2-1.2z"/>
	<path d="m12.1 12.6c-0.6 0-1.2 0.5-1.2 1.2 0 0.6 0.5 1.2 1.2 1.2s1.2-0.5 1.2-1.2c0-0.6-0.6-1.2-1.2-1.2z"/>
</g>
<path d="M9.1,1.4C7.5,1.8,5.4,2,5.4,3.1c0,2,1.8,6.9,3.4,6.9h0.3c1.2,0,2.5-2,2.9-2.7C10.9,7.9,7.8,2,9.1,1.4z M13.8,2  c-0.4-0.8-2-0.8-2.9-0.8c-1.7,0,0.5,4.2,1.6,4.7C13.4,5,14.3,2.8,13.8,2z" fill="#3A7CAE"/>
<g transform="matrix(.078033 0 0 .078032 -.35744 -4.9367)" stroke-opacity="0">
	<path fill="#1D2D3E" d="m5.0805 168.49v-28.834h205.04v57.668h-205.04z"/>
	<text x="107.69659" y="179.83209" fill="#ffffff" font-family="'Bitstream Charter'" font-size="30px" letter-spacing="0px" stroke-opacity=".61961" stroke-width=".99958" text-align="center" text-anchor="middle" word-spacing="0px" style="line-height:125%" xml:space="preserve"><tspan id="tspan3815" fill="#ffffff" font-family="'Bitstream Charter'" font-weight="bold" style="line-height:100%">Saferpay</tspan></text>
</g></svg>
